<svg width="98" height="18" viewBox="0 0 98 18" fill="none" xmlns="http://www.w3.org/2000/svg">
<path fill-rule="evenodd" clip-rule="evenodd" d="M11.2165 0.38315C10.3399 0.114698 9.4233 -0.0143289 8.50307 0.00126133C7.08755 0.0661857 5.74424 0.439239 4.76416 1.45896C2.7919 3.51101 3.39965 6.3702 5.48585 8.11332C7.26664 9.60109 9.65437 10.0928 11.9747 9.99447C13.1124 9.93659 13.8911 9.76134 14.9597 9.44583C14.9409 9.96593 14.8803 10.4367 14.7314 10.9384C13.4509 15.246 7.80112 16.6093 4.56258 13.2915C3.49687 12.195 2.93178 10.7384 2.99206 9.24301C3.01184 8.73839 3.13236 8.10655 3.31524 7.63079C3.06278 7.56689 2.75134 7.46209 2.45403 7.36205C2.29147 7.30735 2.13313 7.25407 1.99096 7.20967C1.63928 7.10181 1.28875 6.99057 0.939456 6.87599C0.914617 6.86785 0.882379 6.85762 0.846233 6.84615C0.721428 6.80655 0.550019 6.75217 0.475627 6.71793C-0.0509512 8.36661 -0.173885 9.85308 0.277306 11.5437C0.361551 11.8593 0.469586 12.2243 0.598105 12.5266C0.748137 12.8694 0.898658 13.1973 1.08365 13.5244C2.01569 15.1726 3.63796 16.6078 5.46088 17.3233C7.71724 18.2305 10.2621 18.2254 12.5143 17.3088C14.6408 16.4558 16.398 14.7312 17.2803 12.6941C17.9606 11.1237 18.1322 9.68267 17.8955 8.00063C19.2789 6.96832 20.2627 5.76307 20.8246 4.15694C20.9908 3.68183 21.1015 3.27216 21.1662 2.77278C21.1971 2.54861 21.2142 2.32292 21.2175 2.09685L18.2388 2.09226C18.1516 3.18929 17.6331 4.30072 16.8109 5.07494C16.5862 4.65129 16.2698 4.18689 15.9784 3.80031C14.7903 2.22365 13.16 0.992426 11.2165 0.38315ZM8.41823 2.87022C8.95802 2.82898 9.67103 2.91886 10.186 3.08147C12.1563 3.70361 13.3488 4.94469 14.2864 6.63843C13.5852 6.85696 13.1357 6.98751 12.4094 7.08376L12.3738 7.08746C10.6142 7.2711 8.46237 7.04329 7.19829 5.71419C6.86698 5.36582 6.60525 4.93898 6.55764 4.46202C6.52389 4.10751 6.63974 3.7548 6.87945 3.4823C7.27123 3.03625 7.83405 2.91672 8.41823 2.87022Z" fill="#0A0A0A"/>
<path d="M31.1413 15.27C29.8319 15.27 28.7013 14.988 27.7495 14.424C26.8038 13.86 26.0733 13.071 25.558 12.057C25.0488 11.043 24.7942 9.864 24.7942 8.52C24.7942 7.176 25.0488 5.997 25.558 4.983C26.0733 3.969 26.8038 3.18 27.7495 2.616C28.7013 2.052 29.8319 1.77 31.1413 1.77C32.4507 1.77 33.5783 2.052 34.524 2.616C35.4757 3.18 36.2062 3.969 36.7154 4.983C37.2307 5.997 37.4884 7.176 37.4884 8.52C37.4884 9.864 37.2307 11.043 36.7154 12.057C36.2062 13.071 35.4757 13.86 34.524 14.424C33.5783 14.988 32.4507 15.27 31.1413 15.27ZM31.1413 12.966C31.9718 12.978 32.6629 12.801 33.2145 12.435C33.7662 12.069 34.1784 11.55 34.4512 10.878C34.7301 10.206 34.8695 9.42 34.8695 8.52C34.8695 7.62 34.7301 6.84 34.4512 6.18C34.1784 5.52 33.7662 5.007 33.2145 4.641C32.6629 4.275 31.9718 4.086 31.1413 4.074C30.3108 4.062 29.6197 4.239 29.068 4.605C28.5164 4.971 28.1011 5.49 27.8223 6.162C27.5495 6.834 27.4131 7.62 27.4131 8.52C27.4131 9.42 27.5495 10.2 27.8223 10.86C28.1011 11.52 28.5164 12.033 29.068 12.399C29.6197 12.765 30.3108 12.954 31.1413 12.966Z" fill="#0A0A0A"/>
<path d="M45.2688 15V10.41C45.2688 10.188 45.2566 9.906 45.2324 9.564C45.2081 9.216 45.1324 8.868 45.005 8.52C44.8777 8.172 44.6686 7.881 44.3776 7.647C44.0927 7.413 43.6865 7.296 43.1591 7.296C42.9469 7.296 42.7196 7.329 42.4771 7.395C42.2346 7.461 42.0073 7.59 41.7951 7.782C41.583 7.968 41.4072 8.244 41.2677 8.61C41.1344 8.976 41.0677 9.462 41.0677 10.068L39.6491 9.402C39.6491 8.634 39.8068 7.914 40.122 7.242C40.4372 6.57 40.9101 6.027 41.5405 5.613C42.1771 5.199 42.9773 4.992 43.9411 4.992C44.711 4.992 45.3385 5.121 45.8234 5.379C46.3084 5.637 46.6843 5.964 46.951 6.36C47.2238 6.756 47.4178 7.17 47.533 7.602C47.6481 8.028 47.7179 8.418 47.7421 8.772C47.7664 9.126 47.7785 9.384 47.7785 9.546V15H45.2688ZM38.5579 15V5.28H40.7585V8.502H41.0677V15H38.5579Z" fill="#0A0A0A"/>
<path d="M53.7978 15.27C52.7915 15.27 51.9034 15.057 51.1335 14.631C50.3696 14.199 49.7695 13.608 49.333 12.858C48.9026 12.102 48.6874 11.238 48.6874 10.266C48.6874 9.204 48.8996 8.28 49.3239 7.494C49.7483 6.708 50.3333 6.099 51.0789 5.667C51.8245 5.229 52.6823 5.01 53.6523 5.01C54.6829 5.01 55.5588 5.25 56.2802 5.73C57.0016 6.21 57.5351 6.885 57.8806 7.755C58.2262 8.625 58.3474 9.648 58.2444 10.824H55.7983V9.924C55.7983 8.934 55.6376 8.223 55.3163 7.791C55.0011 7.353 54.4828 7.134 53.7614 7.134C52.9188 7.134 52.2974 7.389 51.8973 7.899C51.5033 8.403 51.3062 9.15 51.3062 10.14C51.3062 11.046 51.5033 11.748 51.8973 12.246C52.2974 12.738 52.8824 12.984 53.6523 12.984C54.1373 12.984 54.5525 12.879 54.8981 12.669C55.2436 12.459 55.5073 12.156 55.6892 11.76L58.1625 12.462C57.7927 13.35 57.2077 14.04 56.4075 14.532C55.6134 15.024 54.7435 15.27 53.7978 15.27ZM50.5424 10.824V9.006H57.0532V10.824H50.5424Z" fill="#0A0A0A"/>
<path d="M59.752 15V2.04H62.2254V12.714H67.8632V15H59.752Z" fill="#0A0A0A"/>
<path d="M73.2466 15.27C72.2403 15.27 71.3522 15.057 70.5823 14.631C69.8185 14.199 69.2183 13.608 68.7819 12.858C68.3514 12.102 68.1362 11.238 68.1362 10.266C68.1362 9.204 68.3484 8.28 68.7728 7.494C69.1971 6.708 69.7821 6.099 70.5278 5.667C71.2734 5.229 72.1312 5.01 73.1011 5.01C74.1317 5.01 75.0077 5.25 75.7291 5.73C76.4505 6.21 76.984 6.885 77.3295 7.755C77.675 8.625 77.7963 9.648 77.6932 10.824H75.2471V9.924C75.2471 8.934 75.0865 8.223 74.7652 7.791C74.45 7.353 73.9317 7.134 73.2103 7.134C72.3676 7.134 71.7462 7.389 71.3461 7.899C70.9521 8.403 70.7551 9.15 70.7551 10.14C70.7551 11.046 70.9521 11.748 71.3461 12.246C71.7462 12.738 72.3312 12.984 73.1011 12.984C73.5861 12.984 74.0014 12.879 74.3469 12.669C74.6925 12.459 74.9562 12.156 75.138 11.76L77.6114 12.462C77.2416 13.35 76.6566 14.04 75.8564 14.532C75.0623 15.024 74.1923 15.27 73.2466 15.27ZM69.9913 10.824V9.006H76.502V10.824H69.9913Z" fill="#0A0A0A"/>
<path d="M85.4452 15V10.41C85.4452 10.188 85.4331 9.906 85.4088 9.564C85.3846 9.216 85.3088 8.868 85.1815 8.52C85.0542 8.172 84.845 7.881 84.5541 7.647C84.2691 7.413 83.863 7.296 83.3356 7.296C83.1234 7.296 82.8961 7.329 82.6536 7.395C82.4111 7.461 82.1838 7.59 81.9716 7.782C81.7594 7.968 81.5836 8.244 81.4442 8.61C81.3108 8.976 81.2441 9.462 81.2441 10.068L79.8256 9.402C79.8256 8.634 79.9832 7.914 80.2984 7.242C80.6137 6.57 81.0865 6.027 81.717 5.613C82.3535 5.199 83.1537 4.992 84.1176 4.992C84.8875 4.992 85.5149 5.121 85.9999 5.379C86.4849 5.637 86.8607 5.964 87.1275 6.36C87.4003 6.756 87.5942 7.17 87.7094 7.602C87.8246 8.028 87.8943 8.418 87.9186 8.772C87.9428 9.126 87.9549 9.384 87.9549 9.546V15H85.4452ZM78.7344 15V5.28H80.935V8.502H81.2441V15H78.7344Z" fill="#0A0A0A"/>
<path d="M93.4244 15.27C92.1877 15.27 91.1874 14.994 90.4236 14.442C89.6658 13.884 89.2051 13.098 89.0414 12.084L91.5694 11.706C91.6724 12.162 91.8997 12.519 92.2513 12.777C92.609 13.035 93.0606 13.164 93.6062 13.164C94.0548 13.164 94.4004 13.08 94.6429 12.912C94.8853 12.738 95.0066 12.498 95.0066 12.192C95.0066 12 94.9581 11.847 94.8611 11.733C94.7641 11.613 94.5459 11.496 94.2064 11.382C93.873 11.268 93.3516 11.118 92.6423 10.932C91.8421 10.728 91.2026 10.5 90.7237 10.248C90.2448 9.996 89.8992 9.696 89.6871 9.348C89.4749 8.994 89.3688 8.568 89.3688 8.07C89.3688 7.446 89.5294 6.906 89.8507 6.45C90.172 5.988 90.6237 5.634 91.2056 5.388C91.7937 5.136 92.4847 5.01 93.2789 5.01C94.0488 5.01 94.7308 5.127 95.3249 5.361C95.9189 5.595 96.3979 5.928 96.7616 6.36C97.1314 6.792 97.3587 7.302 97.4436 7.89L94.9157 8.34C94.8732 7.98 94.7156 7.695 94.4428 7.485C94.17 7.275 93.8002 7.152 93.3334 7.116C92.8788 7.086 92.512 7.146 92.2332 7.296C91.9604 7.446 91.824 7.662 91.824 7.944C91.824 8.112 91.8815 8.253 91.9967 8.367C92.118 8.481 92.3635 8.598 92.7333 8.718C93.1091 8.838 93.679 8.994 94.4428 9.186C95.1885 9.378 95.7856 9.603 96.2342 9.861C96.6888 10.113 97.0192 10.419 97.2253 10.779C97.4315 11.133 97.5345 11.562 97.5345 12.066C97.5345 13.062 97.1708 13.845 96.4433 14.415C95.7159 14.985 94.7095 15.27 93.4244 15.27Z" fill="#0A0A0A"/>
</svg>
