<svg width="97" height="18" viewBox="0 0 97 18" fill="none" xmlns="http://www.w3.org/2000/svg">
<path fill-rule="evenodd" clip-rule="evenodd" d="M11.1015 0.38315C10.2339 0.114698 9.32669 -0.0143289 8.41589 0.00126133C7.01489 0.0661857 5.68535 0.439239 4.71531 1.45896C2.76328 3.51101 3.3648 6.3702 5.42961 8.11332C7.19214 9.60109 9.55539 10.0928 11.8519 9.99447C12.978 9.93659 13.7487 9.76134 14.8063 9.44583C14.7877 9.96593 14.7278 10.4367 14.5803 10.9384C13.313 15.246 7.72113 16.6093 4.5158 13.2915C3.46102 12.195 2.90172 10.7384 2.96138 9.24301C2.98096 8.73839 3.10024 8.10655 3.28125 7.63079C3.03138 7.56689 2.72313 7.46209 2.42887 7.36205C2.26797 7.30735 2.11126 7.25407 1.97055 7.20967C1.62247 7.10181 1.27554 6.99057 0.929824 6.87599C0.90524 6.86785 0.873333 6.85762 0.837556 6.84615C0.714031 6.80655 0.544379 6.75217 0.47075 6.71793C-0.0504288 8.36661 -0.172102 9.85308 0.274463 11.5437C0.357844 11.8593 0.464772 12.2243 0.591973 12.5266C0.740466 12.8694 0.889444 13.1973 1.07254 13.5244C1.99503 15.1726 3.60066 16.6078 5.40489 17.3233C7.63812 18.2305 10.1569 18.2254 12.386 17.3088C14.4906 16.4558 16.2299 14.7312 17.1031 12.6941C17.7765 11.1237 17.9463 9.68267 17.712 8.00063C19.0812 6.96832 20.055 5.76307 20.6111 4.15694C20.7756 3.68183 20.8851 3.27216 20.9492 2.77278C20.9798 2.54861 20.9967 2.32292 21 2.09685L18.0518 2.09226C17.9655 3.18929 17.4523 4.30072 16.6386 5.07494C16.4161 4.65129 16.103 4.18689 15.8146 3.80031C14.6386 2.22365 13.0251 0.992426 11.1015 0.38315ZM8.33192 2.87022C8.86618 2.82898 9.57187 2.91886 10.0816 3.08147C12.0316 3.70361 13.212 4.94469 14.14 6.63843C13.4459 6.85696 13.001 6.98751 12.2821 7.08376L12.2469 7.08746C10.5054 7.2711 8.37561 7.04329 7.12449 5.71419C6.79658 5.36582 6.53753 4.93898 6.4904 4.46202C6.457 4.10751 6.57166 3.7548 6.80892 3.4823C7.19668 3.03625 7.75373 2.91672 8.33192 2.87022Z" fill="#F4F5F8"/>
<path d="M30.822 15.27C29.526 15.27 28.407 14.988 27.465 14.424C26.529 13.86 25.806 13.071 25.296 12.057C24.792 11.043 24.54 9.864 24.54 8.52C24.54 7.176 24.792 5.997 25.296 4.983C25.806 3.969 26.529 3.18 27.465 2.616C28.407 2.052 29.526 1.77 30.822 1.77C32.118 1.77 33.234 2.052 34.17 2.616C35.112 3.18 35.835 3.969 36.339 4.983C36.849 5.997 37.104 7.176 37.104 8.52C37.104 9.864 36.849 11.043 36.339 12.057C35.835 13.071 35.112 13.86 34.17 14.424C33.234 14.988 32.118 15.27 30.822 15.27ZM30.822 12.966C31.644 12.978 32.328 12.801 32.874 12.435C33.42 12.069 33.828 11.55 34.098 10.878C34.374 10.206 34.512 9.42 34.512 8.52C34.512 7.62 34.374 6.84 34.098 6.18C33.828 5.52 33.42 5.007 32.874 4.641C32.328 4.275 31.644 4.086 30.822 4.074C30 4.062 29.316 4.239 28.77 4.605C28.224 4.971 27.813 5.49 27.537 6.162C27.267 6.834 27.132 7.62 27.132 8.52C27.132 9.42 27.267 10.2 27.537 10.86C27.813 11.52 28.224 12.033 28.77 12.399C29.316 12.765 30 12.954 30.822 12.966Z" fill="#F4F5F8"/>
<path d="M44.8046 15V10.41C44.8046 10.188 44.7926 9.906 44.7686 9.564C44.7446 9.216 44.6696 8.868 44.5436 8.52C44.4176 8.172 44.2106 7.881 43.9226 7.647C43.6406 7.413 43.2386 7.296 42.7166 7.296C42.5066 7.296 42.2816 7.329 42.0416 7.395C41.8016 7.461 41.5766 7.59 41.3666 7.782C41.1566 7.968 40.9826 8.244 40.8446 8.61C40.7126 8.976 40.6466 9.462 40.6466 10.068L39.2426 9.402C39.2426 8.634 39.3986 7.914 39.7106 7.242C40.0226 6.57 40.4906 6.027 41.1146 5.613C41.7446 5.199 42.5366 4.992 43.4906 4.992C44.2526 4.992 44.8736 5.121 45.3536 5.379C45.8336 5.637 46.2056 5.964 46.4696 6.36C46.7396 6.756 46.9316 7.17 47.0456 7.602C47.1596 8.028 47.2286 8.418 47.2526 8.772C47.2766 9.126 47.2886 9.384 47.2886 9.546V15H44.8046ZM38.1626 15V5.28H40.3406V8.502H40.6466V15H38.1626Z" fill="#F4F5F8"/>
<path d="M53.2462 15.27C52.2502 15.27 51.3712 15.057 50.6092 14.631C49.8532 14.199 49.2592 13.608 48.8272 12.858C48.4012 12.102 48.1882 11.238 48.1882 10.266C48.1882 9.204 48.3982 8.28 48.8182 7.494C49.2382 6.708 49.8172 6.099 50.5552 5.667C51.2932 5.229 52.1422 5.01 53.1022 5.01C54.1222 5.01 54.9892 5.25 55.7032 5.73C56.4172 6.21 56.9452 6.885 57.2872 7.755C57.6292 8.625 57.7492 9.648 57.6472 10.824H55.2262V9.924C55.2262 8.934 55.0672 8.223 54.7492 7.791C54.4372 7.353 53.9242 7.134 53.2102 7.134C52.3762 7.134 51.7612 7.389 51.3652 7.899C50.9752 8.403 50.7802 9.15 50.7802 10.14C50.7802 11.046 50.9752 11.748 51.3652 12.246C51.7612 12.738 52.3402 12.984 53.1022 12.984C53.5822 12.984 53.9932 12.879 54.3352 12.669C54.6772 12.459 54.9382 12.156 55.1182 11.76L57.5662 12.462C57.2002 13.35 56.6212 14.04 55.8292 14.532C55.0432 15.024 54.1822 15.27 53.2462 15.27ZM50.0242 10.824V9.006H56.4682V10.824H50.0242Z" fill="#F4F5F8"/>
<path d="M59.1394 15V2.04H61.5874V12.714H67.1674V15H59.1394Z" fill="#F4F5F8"/>
<path d="M72.4957 15.27C71.4997 15.27 70.6207 15.057 69.8587 14.631C69.1027 14.199 68.5087 13.608 68.0767 12.858C67.6507 12.102 67.4377 11.238 67.4377 10.266C67.4377 9.204 67.6477 8.28 68.0677 7.494C68.4877 6.708 69.0667 6.099 69.8047 5.667C70.5427 5.229 71.3917 5.01 72.3517 5.01C73.3717 5.01 74.2387 5.25 74.9527 5.73C75.6667 6.21 76.1947 6.885 76.5367 7.755C76.8787 8.625 76.9987 9.648 76.8967 10.824H74.4757V9.924C74.4757 8.934 74.3167 8.223 73.9987 7.791C73.6867 7.353 73.1737 7.134 72.4597 7.134C71.6257 7.134 71.0107 7.389 70.6147 7.899C70.2247 8.403 70.0297 9.15 70.0297 10.14C70.0297 11.046 70.2247 11.748 70.6147 12.246C71.0107 12.738 71.5897 12.984 72.3517 12.984C72.8317 12.984 73.2427 12.879 73.5847 12.669C73.9267 12.459 74.1877 12.156 74.3677 11.76L76.8157 12.462C76.4497 13.35 75.8707 14.04 75.0787 14.532C74.2927 15.024 73.4317 15.27 72.4957 15.27ZM69.2737 10.824V9.006H75.7177V10.824H69.2737Z" fill="#F4F5F8"/>
<path d="M84.5692 15V10.41C84.5692 10.188 84.5572 9.906 84.5332 9.564C84.5092 9.216 84.4342 8.868 84.3082 8.52C84.1822 8.172 83.9752 7.881 83.6872 7.647C83.4052 7.413 83.0032 7.296 82.4812 7.296C82.2712 7.296 82.0462 7.329 81.8062 7.395C81.5662 7.461 81.3412 7.59 81.1312 7.782C80.9212 7.968 80.7472 8.244 80.6092 8.61C80.4772 8.976 80.4112 9.462 80.4112 10.068L79.0072 9.402C79.0072 8.634 79.1632 7.914 79.4752 7.242C79.7872 6.57 80.2552 6.027 80.8792 5.613C81.5092 5.199 82.3012 4.992 83.2552 4.992C84.0172 4.992 84.6382 5.121 85.1182 5.379C85.5982 5.637 85.9702 5.964 86.2342 6.36C86.5042 6.756 86.6962 7.17 86.8102 7.602C86.9242 8.028 86.9932 8.418 87.0172 8.772C87.0412 9.126 87.0532 9.384 87.0532 9.546V15H84.5692ZM77.9272 15V5.28H80.1052V8.502H80.4112V15H77.9272Z" fill="#F4F5F8"/>
<path d="M92.4665 15.27C91.2425 15.27 90.2525 14.994 89.4965 14.442C88.7465 13.884 88.2905 13.098 88.1285 12.084L90.6305 11.706C90.7325 12.162 90.9575 12.519 91.3055 12.777C91.6595 13.035 92.1065 13.164 92.6465 13.164C93.0905 13.164 93.4325 13.08 93.6725 12.912C93.9125 12.738 94.0325 12.498 94.0325 12.192C94.0325 12 93.9845 11.847 93.8885 11.733C93.7925 11.613 93.5765 11.496 93.2405 11.382C92.9105 11.268 92.3945 11.118 91.6925 10.932C90.9005 10.728 90.2675 10.5 89.7935 10.248C89.3195 9.996 88.9775 9.696 88.7675 9.348C88.5575 8.994 88.4525 8.568 88.4525 8.07C88.4525 7.446 88.6115 6.906 88.9295 6.45C89.2475 5.988 89.6945 5.634 90.2705 5.388C90.8525 5.136 91.5365 5.01 92.3225 5.01C93.0845 5.01 93.7595 5.127 94.3475 5.361C94.9355 5.595 95.4095 5.928 95.7695 6.36C96.1355 6.792 96.3605 7.302 96.4445 7.89L93.9425 8.34C93.9005 7.98 93.7445 7.695 93.4745 7.485C93.2045 7.275 92.8385 7.152 92.3765 7.116C91.9265 7.086 91.5635 7.146 91.2875 7.296C91.0175 7.446 90.8825 7.662 90.8825 7.944C90.8825 8.112 90.9395 8.253 91.0535 8.367C91.1735 8.481 91.4165 8.598 91.7825 8.718C92.1545 8.838 92.7185 8.994 93.4745 9.186C94.2125 9.378 94.8035 9.603 95.2475 9.861C95.6975 10.113 96.0245 10.419 96.2285 10.779C96.4325 11.133 96.5345 11.562 96.5345 12.066C96.5345 13.062 96.1745 13.845 95.4545 14.415C94.7345 14.985 93.7385 15.27 92.4665 15.27Z" fill="#F4F5F8"/>
</svg>
