<svg width="99" height="86" viewBox="0 0 99 86" fill="none" xmlns="http://www.w3.org/2000/svg">
<path fill-rule="evenodd" clip-rule="evenodd" d="M52.3354 1.8306C48.2457 0.548 43.9687 -0.0684603 39.6749 0.00602634C33.0702 0.31622 26.8023 2.09859 22.2293 6.97057C13.0269 16.7748 15.8626 30.4354 25.5967 38.7637C33.9058 45.8719 45.0468 48.2212 55.8734 47.7514C61.182 47.4748 64.8152 46.6375 69.801 45.1301C69.7136 47.615 69.431 49.8642 68.7358 52.2614C62.7612 72.8419 36.3996 79.3554 21.2888 63.5037C16.3162 58.265 13.6795 51.3055 13.9608 44.1611C14.0531 41.7501 14.6154 38.7313 15.4687 36.4582C14.2908 36.1529 12.8376 35.6522 11.4504 35.1742C10.6919 34.9129 9.95306 34.6583 9.28971 34.4462C7.64881 33.9309 6.01326 33.3994 4.38345 32.8519C4.26756 32.8131 4.11714 32.7642 3.94848 32.7094C3.36615 32.5202 2.56636 32.2604 2.21925 32.0968C-0.237736 39.9738 -0.81134 47.0758 1.2939 55.153C1.68698 56.6613 2.19107 58.4052 2.79073 59.8495C3.49077 61.4871 4.19309 63.0539 5.05625 64.6168C9.40513 72.4914 16.9746 79.3485 25.4802 82.767C36.0083 87.1014 47.8824 87.0768 58.3911 82.6977C68.3131 78.6221 76.5125 70.3824 80.6291 60.6498C83.8034 53.1464 84.604 46.2616 83.4995 38.2252C89.9543 33.2931 94.5449 27.5347 97.1665 19.8609C97.9419 17.591 98.4584 15.6337 98.7607 13.2477C98.9048 12.1767 98.9843 11.0984 99 10.0183L85.1016 9.99633C84.6945 15.2377 82.2753 20.5479 78.4389 24.2469C77.3903 22.2228 75.9141 20.004 74.5545 18.157C69.0106 10.6241 61.404 4.74159 52.3354 1.8306ZM39.2791 13.7133C41.7977 13.5162 45.1245 13.9457 47.5275 14.7226C56.7205 17.695 62.285 23.6246 66.6598 31.7169C63.3879 32.7611 61.2906 33.3848 57.9014 33.8446L57.7353 33.8623C49.5253 34.7397 39.485 33.6513 33.5869 27.3011C32.041 25.6367 30.8198 23.5973 30.5976 21.3185C30.4402 19.6248 30.9807 17.9396 32.0992 16.6377C33.9272 14.5065 36.5533 13.9354 39.2791 13.7133Z" fill="black"/>
</svg>
